<svg width="18" height="20" viewBox="0 0 18 20" fill="none" xmlns="http://www.w3.org/2000/svg">
<path fill-rule="evenodd" clip-rule="evenodd" d="M0.666656 4.99998C0.666656 4.53974 1.03975 4.16665 1.49999 4.16665H16.5C16.9602 4.16665 17.3333 4.53974 17.3333 4.99998C17.3333 5.46022 16.9602 5.83331 16.5 5.83331H1.49999C1.03975 5.83331 0.666656 5.46022 0.666656 4.99998Z" fill="#FF678C"/>
<path fill-rule="evenodd" clip-rule="evenodd" d="M7.33332 2.49998C7.11231 2.49998 6.90035 2.58778 6.74407 2.74406C6.58779 2.90034 6.49999 3.1123 6.49999 3.33331V4.99998C6.49999 5.46022 6.12689 5.83331 5.66666 5.83331C5.20642 5.83331 4.83332 5.46022 4.83332 4.99998V3.33331C4.83332 2.67027 5.09672 2.03439 5.56556 1.56555C6.0344 1.09671 6.67028 0.833313 7.33332 0.833313H10.6667C11.3297 0.833313 11.9656 1.09671 12.4344 1.56555C12.9033 2.03439 13.1667 2.67027 13.1667 3.33331V4.99998C13.1667 5.46022 12.7936 5.83331 12.3333 5.83331C11.8731 5.83331 11.5 5.46022 11.5 4.99998V3.33331C11.5 3.1123 11.4122 2.90034 11.2559 2.74406C11.0996 2.58778 10.8877 2.49998 10.6667 2.49998H7.33332ZM3.16666 4.16665C3.62689 4.16665 3.99999 4.53974 3.99999 4.99998V16.6666C3.99999 16.8877 4.08779 17.0996 4.24407 17.2559C4.40035 17.4122 4.61231 17.5 4.83332 17.5H13.1667C13.3877 17.5 13.5996 17.4122 13.7559 17.2559C13.9122 17.0996 14 16.8877 14 16.6666V4.99998C14 4.53974 14.3731 4.16665 14.8333 4.16665C15.2936 4.16665 15.6667 4.53974 15.6667 4.99998V16.6666C15.6667 17.3297 15.4033 17.9656 14.9344 18.4344C14.4656 18.9033 13.8297 19.1666 13.1667 19.1666H4.83332C4.17028 19.1666 3.5344 18.9033 3.06556 18.4344C2.59672 17.9656 2.33332 17.3297 2.33332 16.6666V4.99998C2.33332 4.53974 2.70642 4.16665 3.16666 4.16665Z" fill="#FF678C"/>
<path fill-rule="evenodd" clip-rule="evenodd" d="M7.33332 8.33331C7.79356 8.33331 8.16666 8.70641 8.16666 9.16665V14.1666C8.16666 14.6269 7.79356 15 7.33332 15C6.87309 15 6.49999 14.6269 6.49999 14.1666V9.16665C6.49999 8.70641 6.87309 8.33331 7.33332 8.33331Z" fill="#FF678C"/>
<path fill-rule="evenodd" clip-rule="evenodd" d="M10.6667 8.33331C11.1269 8.33331 11.5 8.70641 11.5 9.16665V14.1666C11.5 14.6269 11.1269 15 10.6667 15C10.2064 15 9.83332 14.6269 9.83332 14.1666V9.16665C9.83332 8.70641 10.2064 8.33331 10.6667 8.33331Z" fill="#FF678C"/>
</svg>
