<svg width="16" height="20" viewBox="0 0 16 20" fill="none" xmlns="http://www.w3.org/2000/svg">
<path fill-rule="evenodd" clip-rule="evenodd" d="M1.23223 1.56561C1.70107 1.09677 2.33696 0.833374 3 0.833374H8.83333C9.05435 0.833374 9.26631 0.921171 9.42259 1.07745L15.2559 6.91079C15.4122 7.06707 15.5 7.27903 15.5 7.50004V16.6667C15.5 17.3298 15.2366 17.9656 14.7678 18.4345C14.2989 18.9033 13.663 19.1667 13 19.1667H3C2.33696 19.1667 1.70107 18.9033 1.23223 18.4345C0.763392 17.9656 0.5 17.3298 0.5 16.6667V3.33337C0.5 2.67033 0.763392 2.03445 1.23223 1.56561ZM3 2.50004C2.77899 2.50004 2.56702 2.58784 2.41074 2.74412C2.25446 2.9004 2.16667 3.11236 2.16667 3.33337V16.6667C2.16667 16.8877 2.25446 17.0997 2.41074 17.256C2.56702 17.4122 2.77899 17.5 3 17.5H13C13.221 17.5 13.433 17.4122 13.5893 17.256C13.7455 17.0997 13.8333 16.8877 13.8333 16.6667V7.84522L8.48816 2.50004H3Z" fill="#006FFF"/>
<path fill-rule="evenodd" clip-rule="evenodd" d="M8.83333 0.833374C9.29357 0.833374 9.66667 1.20647 9.66667 1.66671V6.66671H14.6667C15.1269 6.66671 15.5 7.0398 15.5 7.50004C15.5 7.96028 15.1269 8.33337 14.6667 8.33337H8.83333C8.3731 8.33337 8 7.96028 8 7.50004V1.66671C8 1.20647 8.3731 0.833374 8.83333 0.833374Z" fill="#006FFF"/>
</svg>
