<svg width="12" height="16" viewBox="0 0 12 16" fill="none" xmlns="http://www.w3.org/2000/svg">
<path fill-rule="evenodd" clip-rule="evenodd" d="M0.166666 1.33333C0.166666 0.873096 0.539762 0.5 0.999999 0.5H4.33333C4.79357 0.5 5.16667 0.873096 5.16667 1.33333V14.6667C5.16667 15.1269 4.79357 15.5 4.33333 15.5H0.999999C0.539762 15.5 0.166666 15.1269 0.166666 14.6667V1.33333ZM1.83333 2.16667V13.8333H3.5V2.16667H1.83333Z" fill="#006FFF"/>
<path fill-rule="evenodd" clip-rule="evenodd" d="M6.83333 1.33333C6.83333 0.873096 7.20643 0.5 7.66667 0.5H11C11.4602 0.5 11.8333 0.873096 11.8333 1.33333V14.6667C11.8333 15.1269 11.4602 15.5 11 15.5H7.66667C7.20643 15.5 6.83333 15.1269 6.83333 14.6667V1.33333ZM8.5 2.16667V13.8333H10.1667V2.16667H8.5Z" fill="#006FFF"/>
</svg>
