<svg width="32" height="32" viewBox="0 0 32 32" fill="none" xmlns="http://www.w3.org/2000/svg">
<rect width="32" height="32" rx="16" fill="url(#paint0_linear_1_100)"/>
<path fill-rule="evenodd" clip-rule="evenodd" d="M18.52 9.59188C17.9892 9.59188 17.4801 9.80275 17.1047 10.1781L10.9781 16.3048C10.3525 16.9303 10.0011 17.7787 10.0011 18.6634C10.0011 19.548 10.3525 20.3964 10.9781 21.022C11.6036 21.6475 12.452 21.9989 13.3367 21.9989C14.2213 21.9989 15.0697 21.6475 15.6953 21.022L21.8219 14.8953C22.0823 14.6349 22.5044 14.6349 22.7647 14.8953C23.0251 15.1556 23.0251 15.5778 22.7647 15.8381L16.6381 21.9648C15.7625 22.8404 14.5749 23.3323 13.3367 23.3323C12.0984 23.3323 10.9109 22.8404 10.0353 21.9648C9.15969 21.0892 8.66779 19.9016 8.66779 18.6634C8.66779 17.4251 9.15969 16.2375 10.0353 15.362L16.1619 9.23529C16.7873 8.60989 17.6356 8.25854 18.52 8.25854C19.4045 8.25854 20.2527 8.60989 20.8781 9.23529C21.5035 9.86069 21.8548 10.7089 21.8548 11.5934C21.8548 12.4778 21.5035 13.326 20.8781 13.9514L14.7447 20.0781C14.3695 20.4533 13.8606 20.6641 13.33 20.6641C12.7994 20.6641 12.2905 20.4533 11.9153 20.0781C11.5401 19.7029 11.3293 19.194 11.3293 18.6634C11.3293 18.1327 11.5401 17.6238 11.9153 17.2486L17.5756 11.595C17.8361 11.3348 18.2582 11.3351 18.5184 11.5956C18.7786 11.8561 18.7783 12.2782 18.5178 12.5384L12.8581 18.1914C12.7331 18.3166 12.6626 18.4865 12.6626 18.6634C12.6626 18.8404 12.7329 19.0101 12.8581 19.1353C12.9832 19.2605 13.153 19.3308 13.33 19.3308C13.507 19.3308 13.6768 19.2605 13.8019 19.1353L19.9353 13.0086C20.3105 12.6333 20.5215 12.1241 20.5215 11.5934C20.5215 11.0625 20.3106 10.5534 19.9353 10.1781C19.5599 9.80275 19.0508 9.59188 18.52 9.59188Z" fill="#ECF8FF"/>
<defs>
<linearGradient id="paint0_linear_1_100" x1="32.7467" y1="8.40677" x2="-1.14387" y2="11.0398" gradientUnits="userSpaceOnUse">
<stop stop-color="#246CF9"/>
<stop offset="0.0001" stop-color="#1E68F6"/>
<stop offset="1" stop-color="#0047D0"/>
</linearGradient>
</defs>
</svg>
